<mxfile host="Electron" modified="2024-03-07T00:09:16.286Z" agent="Mozilla/5.0 (Windows NT 10.0; Win64; x64) AppleWebKit/537.36 (KHTML, like Gecko) draw.io/23.1.5 Chrome/120.0.6099.109 Electron/28.1.0 Safari/537.36" etag="Z1-GzmM-SGX3RzNKz02a" version="23.1.5" type="device">
  <diagram name="Page-1" id="iVJAWnyb312NNo4s5K0B">
    <mxGraphModel dx="780" dy="496" grid="1" gridSize="10" guides="1" tooltips="1" connect="1" arrows="1" fold="1" page="1" pageScale="1" pageWidth="850" pageHeight="1100" math="0" shadow="0">
      <root>
        <mxCell id="0" />
        <mxCell id="1" parent="0" />
        <mxCell id="swStZnMrDDaouDDrZGHB-21" value="" style="rounded=1;whiteSpace=wrap;html=1;fillColor=#dae8fc;gradientColor=#7ea6e0;strokeColor=#6c8ebf;" vertex="1" parent="1">
          <mxGeometry x="120" y="80" width="570" height="380" as="geometry" />
        </mxCell>
        <mxCell id="swStZnMrDDaouDDrZGHB-19" value="" style="rounded=1;whiteSpace=wrap;html=1;fillColor=#d5e8d4;strokeColor=#82b366;gradientColor=#97d077;" vertex="1" parent="1">
          <mxGeometry x="272.5" y="120" width="397.5" height="300" as="geometry" />
        </mxCell>
        <mxCell id="swStZnMrDDaouDDrZGHB-16" style="edgeStyle=orthogonalEdgeStyle;rounded=0;orthogonalLoop=1;jettySize=auto;html=1;entryX=0.5;entryY=0;entryDx=0;entryDy=0;exitX=0.25;exitY=1;exitDx=0;exitDy=0;curved=1;" edge="1" parent="1" source="swStZnMrDDaouDDrZGHB-13" target="swStZnMrDDaouDDrZGHB-12">
          <mxGeometry relative="1" as="geometry" />
        </mxCell>
        <mxCell id="swStZnMrDDaouDDrZGHB-13" value="" style="rounded=1;whiteSpace=wrap;html=1;fillColor=#60a917;fontColor=#ffffff;strokeColor=#2D7600;" vertex="1" parent="1">
          <mxGeometry x="300" y="230" width="350" height="60" as="geometry" />
        </mxCell>
        <mxCell id="swStZnMrDDaouDDrZGHB-20" style="edgeStyle=orthogonalEdgeStyle;rounded=0;orthogonalLoop=1;jettySize=auto;html=1;startArrow=classic;startFill=1;" edge="1" parent="1" source="swStZnMrDDaouDDrZGHB-1" target="swStZnMrDDaouDDrZGHB-13">
          <mxGeometry relative="1" as="geometry" />
        </mxCell>
        <mxCell id="swStZnMrDDaouDDrZGHB-1" value="React Client" style="rounded=1;whiteSpace=wrap;html=1;fillColor=#dae8fc;strokeColor=#6c8ebf;" vertex="1" parent="1">
          <mxGeometry x="150" y="220" width="80" height="80" as="geometry" />
        </mxCell>
        <mxCell id="swStZnMrDDaouDDrZGHB-2" value="Rest Controller" style="rounded=1;whiteSpace=wrap;html=1;fillColor=#d5e8d4;strokeColor=#82b366;" vertex="1" parent="1">
          <mxGeometry x="320" y="243" width="80" height="30" as="geometry" />
        </mxCell>
        <mxCell id="swStZnMrDDaouDDrZGHB-3" value="Service" style="rounded=1;whiteSpace=wrap;html=1;fillColor=#d5e8d4;strokeColor=#82b366;" vertex="1" parent="1">
          <mxGeometry x="425" y="243" width="80" height="30" as="geometry" />
        </mxCell>
        <mxCell id="swStZnMrDDaouDDrZGHB-4" value="Model" style="rounded=1;whiteSpace=wrap;html=1;fillColor=#d5e8d4;strokeColor=#82b366;" vertex="1" parent="1">
          <mxGeometry x="546" y="243" width="80" height="30" as="geometry" />
        </mxCell>
        <mxCell id="swStZnMrDDaouDDrZGHB-5" value="MySQL" style="shape=cylinder3;whiteSpace=wrap;html=1;boundedLbl=1;backgroundOutline=1;size=15;fillColor=#e1d5e7;strokeColor=#9673a6;" vertex="1" parent="1">
          <mxGeometry x="496" y="323" width="60" height="80" as="geometry" />
        </mxCell>
        <mxCell id="swStZnMrDDaouDDrZGHB-6" style="edgeStyle=orthogonalEdgeStyle;rounded=0;orthogonalLoop=1;jettySize=auto;html=1;entryX=1;entryY=0.5;entryDx=0;entryDy=0;entryPerimeter=0;" edge="1" parent="1" source="swStZnMrDDaouDDrZGHB-4" target="swStZnMrDDaouDDrZGHB-5">
          <mxGeometry relative="1" as="geometry" />
        </mxCell>
        <mxCell id="swStZnMrDDaouDDrZGHB-8" style="edgeStyle=orthogonalEdgeStyle;rounded=0;orthogonalLoop=1;jettySize=auto;html=1;entryX=0;entryY=0.5;entryDx=0;entryDy=0;entryPerimeter=0;" edge="1" parent="1" source="swStZnMrDDaouDDrZGHB-3" target="swStZnMrDDaouDDrZGHB-5">
          <mxGeometry relative="1" as="geometry" />
        </mxCell>
        <mxCell id="swStZnMrDDaouDDrZGHB-10" style="edgeStyle=orthogonalEdgeStyle;rounded=0;orthogonalLoop=1;jettySize=auto;html=1;entryX=0.5;entryY=0;entryDx=0;entryDy=0;curved=1;startArrow=classic;startFill=1;" edge="1" parent="1" source="swStZnMrDDaouDDrZGHB-9" target="swStZnMrDDaouDDrZGHB-3">
          <mxGeometry relative="1" as="geometry" />
        </mxCell>
        <mxCell id="swStZnMrDDaouDDrZGHB-9" value="Repository extending JPA Respository" style="rounded=1;whiteSpace=wrap;html=1;fillColor=#d5e8d4;strokeColor=#82b366;" vertex="1" parent="1">
          <mxGeometry x="322.5" y="170" width="307.5" height="30" as="geometry" />
        </mxCell>
        <mxCell id="swStZnMrDDaouDDrZGHB-11" value="Dependency Injection" style="text;html=1;align=center;verticalAlign=middle;whiteSpace=wrap;rounded=0;" vertex="1" parent="1">
          <mxGeometry x="480" y="200" width="120" height="30" as="geometry" />
        </mxCell>
        <mxCell id="swStZnMrDDaouDDrZGHB-18" style="edgeStyle=orthogonalEdgeStyle;rounded=0;orthogonalLoop=1;jettySize=auto;html=1;entryX=0.5;entryY=0;entryDx=0;entryDy=0;" edge="1" parent="1" source="swStZnMrDDaouDDrZGHB-12" target="swStZnMrDDaouDDrZGHB-15">
          <mxGeometry relative="1" as="geometry" />
        </mxCell>
        <mxCell id="swStZnMrDDaouDDrZGHB-12" value="Logging" style="rounded=1;whiteSpace=wrap;html=1;fillColor=#d5e8d4;strokeColor=#82b366;" vertex="1" parent="1">
          <mxGeometry x="322.5" y="310" width="80" height="30" as="geometry" />
        </mxCell>
        <mxCell id="swStZnMrDDaouDDrZGHB-15" value="Logs" style="shape=process;whiteSpace=wrap;html=1;backgroundOutline=1;fillColor=#d5e8d4;strokeColor=#82b366;" vertex="1" parent="1">
          <mxGeometry x="332.5" y="370" width="60" height="20" as="geometry" />
        </mxCell>
      </root>
    </mxGraphModel>
  </diagram>
</mxfile>
